<svg xmlns="http://www.w3.org/2000/svg" xmlns:xlink="http://www.w3.org/1999/xlink" width="500" zoomAndPan="magnify" viewBox="0 0 375 374.999991" height="500" preserveAspectRatio="xMidYMid meet" version="1.0"><defs><clipPath id="91f225e367"><path d="M 74.972656 125 L 171 125 L 171 273 L 74.972656 273 Z M 74.972656 125 " clip-rule="nonzero"/></clipPath><clipPath id="562235bc0e"><path d="M 170 272 L 216 272 L 216 317.25 L 170 317.25 Z M 170 272 " clip-rule="nonzero"/></clipPath><clipPath id="962251075b"><path d="M 169 82 L 265.320312 82 L 265.320312 230 L 169 230 Z M 169 82 " clip-rule="nonzero"/></clipPath><clipPath id="5e2122b1bc"><path d="M 124 37.5 L 170 37.5 L 170 83 L 124 83 Z M 124 37.5 " clip-rule="nonzero"/></clipPath><clipPath id="48b6f8c0c0"><path d="M 79.867188 120 L 176 120 L 176 268 L 79.867188 268 Z M 79.867188 120 " clip-rule="nonzero"/></clipPath><clipPath id="9de65b4cb2"><path d="M 175 267 L 221 267 L 221 312.167969 L 175 312.167969 Z M 175 267 " clip-rule="nonzero"/></clipPath><clipPath id="e15c0ae159"><path d="M 174 77 L 270.214844 77 L 270.214844 224 L 174 224 Z M 174 77 " clip-rule="nonzero"/></clipPath><clipPath id="d20f7304f0"><path d="M 129 32.417969 L 175 32.417969 L 175 78 L 129 78 Z M 129 32.417969 " clip-rule="nonzero"/></clipPath></defs><g clip-path="url(#91f225e367)"><path fill="#63afdc" d="M 148.277344 125.84375 L 170.726562 148.289062 L 119.84375 199.171875 L 170.726562 250.046875 L 148.277344 272.496094 L 74.953125 199.171875 L 148.277344 125.84375 " fill-opacity="1" fill-rule="nonzero"/></g><g clip-path="url(#562235bc0e)"><path fill="#63afdc" d="M 215.621094 294.941406 L 193.171875 317.390625 L 170.726562 294.941406 L 193.171875 272.496094 L 215.621094 294.941406 " fill-opacity="1" fill-rule="nonzero"/></g><g clip-path="url(#962251075b)"><path fill="#724dc9" d="M 191.980469 82.390625 L 265.308594 155.71875 L 191.980469 229.042969 L 169.53125 206.597656 L 220.414062 155.71875 L 169.53125 104.839844 L 191.980469 82.390625 " fill-opacity="1" fill-rule="nonzero"/></g><g clip-path="url(#5e2122b1bc)"><path fill="#724dc9" d="M 147.089844 37.5 L 169.53125 59.949219 L 147.089844 82.390625 L 124.640625 59.949219 L 147.089844 37.5 " fill-opacity="1" fill-rule="nonzero"/></g><g clip-path="url(#48b6f8c0c0)"><path fill="#468eb8" d="M 153.171875 120.761719 L 175.617188 143.207031 L 124.738281 194.089844 L 175.617188 244.964844 L 153.171875 267.414062 L 79.84375 194.089844 L 153.171875 120.761719 " fill-opacity="1" fill-rule="nonzero"/></g><g clip-path="url(#9de65b4cb2)"><path fill="#468eb8" d="M 220.511719 289.859375 L 198.066406 312.308594 L 175.617188 289.859375 L 198.066406 267.414062 L 220.511719 289.859375 " fill-opacity="1" fill-rule="nonzero"/></g><g clip-path="url(#e15c0ae159)"><path fill="#532caf" d="M 196.875 77.308594 L 270.199219 150.632812 L 196.875 223.960938 L 174.425781 201.515625 L 225.304688 150.632812 L 174.425781 99.757812 L 196.875 77.308594 " fill-opacity="1" fill-rule="nonzero"/></g><g clip-path="url(#d20f7304f0)"><path fill="#532caf" d="M 151.980469 32.414062 L 174.425781 54.863281 L 151.980469 77.308594 L 129.53125 54.863281 L 151.980469 32.414062 " fill-opacity="1" fill-rule="nonzero"/></g></svg>