<svg xmlns="http://www.w3.org/2000/svg" xmlns:xlink="http://www.w3.org/1999/xlink" width="500" zoomAndPan="magnify" viewBox="0 0 375 374.999991" height="500" preserveAspectRatio="xMidYMid meet" version="1.0"><defs><g/><clipPath id="713a86efcc"><path d="M 121.886719 98 L 188 98 L 188 200 L 121.886719 200 Z M 121.886719 98 " clip-rule="nonzero"/></clipPath><clipPath id="f3e345b1d7"><path d="M 187 199 L 219 199 L 219 230.25 L 187 230.25 Z M 187 199 " clip-rule="nonzero"/></clipPath><clipPath id="3b1ba3189a"><path d="M 187 68 L 253.113281 68 L 253.113281 170 L 187 170 Z M 187 68 " clip-rule="nonzero"/></clipPath><clipPath id="a4e5b16c72"><path d="M 156 37.5 L 188 37.5 L 188 69 L 156 69 Z M 156 37.5 " clip-rule="nonzero"/></clipPath></defs><g clip-path="url(#713a86efcc)"><path fill="#2987ca" d="M 172.414062 98.421875 L 187.894531 113.902344 L 152.808594 148.992188 L 187.894531 184.082031 L 172.414062 199.5625 L 121.847656 148.992188 L 172.414062 98.421875 " fill-opacity="1" fill-rule="nonzero"/></g><g clip-path="url(#f3e345b1d7)"><path fill="#2987ca" d="M 218.859375 215.039062 L 203.378906 230.523438 L 187.894531 215.039062 L 203.378906 199.5625 L 218.859375 215.039062 " fill-opacity="1" fill-rule="nonzero"/></g><g clip-path="url(#3b1ba3189a)"><path fill="#532caf" d="M 202.554688 68.457031 L 253.125 119.023438 L 202.554688 169.59375 L 187.074219 154.117188 L 222.164062 119.023438 L 187.074219 83.9375 L 202.554688 68.457031 " fill-opacity="1" fill-rule="nonzero"/></g><g clip-path="url(#a4e5b16c72)"><path fill="#532caf" d="M 171.59375 37.496094 L 187.074219 52.976562 L 171.59375 68.457031 L 156.113281 52.976562 L 171.59375 37.496094 " fill-opacity="1" fill-rule="nonzero"/></g><g fill="#2987ca" fill-opacity="1"><g transform="translate(15.609378, 304.043066)"><g><path d="M 2.265625 -5.421875 C 2.160156 -5.523438 2.109375 -5.722656 2.109375 -6.015625 C 2.109375 -6.535156 2.289062 -6.976562 2.65625 -7.34375 L 5.078125 -9.6875 C 5.410156 -10.019531 5.796875 -10.394531 6.234375 -10.8125 C 6.679688 -11.226562 7.113281 -11.59375 7.53125 -11.90625 C 7.945312 -12.21875 8.285156 -12.375 8.546875 -12.375 C 8.890625 -12.375 9.226562 -12.226562 9.5625 -11.9375 C 9.90625 -11.65625 10.296875 -11.316406 10.734375 -10.921875 C 11.179688 -10.535156 11.742188 -10.195312 12.421875 -9.90625 C 13.097656 -9.625 13.929688 -9.484375 14.921875 -9.484375 C 16.015625 -9.484375 17.003906 -9.738281 17.890625 -10.25 C 18.773438 -10.757812 19.484375 -11.457031 20.015625 -12.34375 C 20.546875 -13.226562 20.8125 -14.203125 20.8125 -15.265625 L 20.8125 -56.625 C 20.8125 -57.40625 21.269531 -57.863281 22.1875 -58 L 30.078125 -58 C 31.222656 -58 31.796875 -57.4375 31.796875 -56.3125 L 31.796875 -16.828125 C 31.796875 -16.285156 31.78125 -15.742188 31.75 -15.203125 C 31.726562 -14.671875 31.691406 -14.132812 31.640625 -13.59375 C 31.429688 -11.53125 30.859375 -9.625 29.921875 -7.875 C 28.984375 -6.132812 27.769531 -4.609375 26.28125 -3.296875 C 24.800781 -1.984375 23.125 -0.960938 21.25 -0.234375 C 19.375 0.492188 17.394531 0.859375 15.3125 0.859375 C 12.707031 0.859375 10.25 0.335938 7.9375 -0.703125 C 5.632812 -1.742188 3.742188 -3.316406 2.265625 -5.421875 Z M 2.265625 -5.421875 "/></g></g></g><g fill="#2987ca" fill-opacity="1"><g transform="translate(51.142045, 304.043066)"><g><path d="M 33.515625 -9.765625 L 3.15625 -9.765625 C 2.09375 -9.765625 1.5625 -10.15625 1.5625 -10.9375 C 1.5625 -11.21875 1.578125 -11.441406 1.609375 -11.609375 C 1.648438 -11.785156 1.6875 -11.882812 1.71875 -11.90625 C 3.90625 -17.144531 6.09375 -22.375 8.28125 -27.59375 C 10.46875 -32.8125 12.664062 -38.035156 14.875 -43.265625 C 15.5 -44.773438 16.175781 -46.25 16.90625 -47.6875 C 17.039062 -47.914062 17.222656 -48.128906 17.453125 -48.328125 C 17.691406 -48.523438 18.082031 -48.625 18.625 -48.625 L 23.46875 -48.625 C 23.988281 -48.625 24.382812 -48.5 24.65625 -48.25 C 24.9375 -48 25.15625 -47.710938 25.3125 -47.390625 C 25.46875 -47.066406 25.597656 -46.773438 25.703125 -46.515625 C 26.898438 -43.722656 27.984375 -41.195312 28.953125 -38.9375 C 29.929688 -36.675781 30.859375 -34.53125 31.734375 -32.5 C 32.609375 -30.46875 33.492188 -28.414062 34.390625 -26.34375 C 35.285156 -24.269531 36.226562 -22.0625 37.21875 -19.71875 C 38.207031 -17.375 39.3125 -14.734375 40.53125 -11.796875 L 40.5 -11.796875 C 40.519531 -11.742188 40.550781 -11.625 40.59375 -11.4375 C 40.632812 -11.257812 40.65625 -11.117188 40.65625 -11.015625 C 40.65625 -10.179688 40.09375 -9.765625 38.96875 -9.765625 Z M 21.015625 -34.53125 C 20.148438 -32.238281 19.222656 -29.773438 18.234375 -27.140625 C 17.242188 -24.515625 16.242188 -21.820312 15.234375 -19.0625 L 26.953125 -19.0625 C 25.960938 -21.664062 24.972656 -24.242188 23.984375 -26.796875 C 22.992188 -29.347656 22.003906 -31.925781 21.015625 -34.53125 Z M 21.015625 -34.53125 "/></g></g></g><g fill="#2987ca" fill-opacity="1"><g transform="translate(95.304072, 304.043066)"><g><path d="M 35.421875 -9.765625 L 5.859375 -9.765625 C 5.203125 -9.765625 4.660156 -10.003906 4.234375 -10.484375 C 3.804688 -10.960938 3.59375 -11.503906 3.59375 -12.109375 L 3.59375 -14.953125 C 3.59375 -15.242188 3.59375 -15.546875 3.59375 -15.859375 C 3.59375 -16.171875 3.601562 -16.46875 3.625 -16.75 C 3.675781 -17.351562 3.910156 -17.90625 4.328125 -18.40625 C 4.742188 -18.914062 5.175781 -19.40625 5.625 -19.875 C 7.445312 -21.90625 9.375 -23.972656 11.40625 -26.078125 C 13.4375 -28.191406 15.457031 -30.296875 17.46875 -32.390625 C 19.488281 -34.492188 21.359375 -36.507812 23.078125 -38.4375 L 6.25 -38.4375 C 4.894531 -38.4375 4.21875 -39.175781 4.21875 -40.65625 L 4.21875 -46 C 4.21875 -46.625 4.390625 -47.117188 4.734375 -47.484375 C 5.085938 -47.847656 5.59375 -48.03125 6.25 -48.03125 L 35.3125 -48.03125 C 35.90625 -48.03125 36.40625 -47.882812 36.8125 -47.59375 C 37.21875 -47.3125 37.421875 -46.832031 37.421875 -46.15625 L 37.421875 -41.046875 C 37.421875 -40.523438 37.375 -40.113281 37.28125 -39.8125 C 37.1875 -39.507812 36.957031 -39.175781 36.59375 -38.8125 C 33.601562 -35.539062 30.546875 -32.289062 27.421875 -29.0625 C 24.296875 -25.832031 21.234375 -22.578125 18.234375 -19.296875 L 35.421875 -19.296875 C 36.023438 -19.296875 36.519531 -19.125 36.90625 -18.78125 C 37.300781 -18.445312 37.5 -17.941406 37.5 -17.265625 L 37.5 -11.953125 C 37.5 -11.429688 37.300781 -10.9375 36.90625 -10.46875 C 36.519531 -10 36.023438 -9.765625 35.421875 -9.765625 Z M 35.421875 -9.765625 "/></g></g></g><g fill="#2987ca" fill-opacity="1"><g transform="translate(137.474701, 304.043066)"><g><path d="M 33.515625 -9.765625 L 3.15625 -9.765625 C 2.09375 -9.765625 1.5625 -10.15625 1.5625 -10.9375 C 1.5625 -11.21875 1.578125 -11.441406 1.609375 -11.609375 C 1.648438 -11.785156 1.6875 -11.882812 1.71875 -11.90625 C 3.90625 -17.144531 6.09375 -22.375 8.28125 -27.59375 C 10.46875 -32.8125 12.664062 -38.035156 14.875 -43.265625 C 15.5 -44.773438 16.175781 -46.25 16.90625 -47.6875 C 17.039062 -47.914062 17.222656 -48.128906 17.453125 -48.328125 C 17.691406 -48.523438 18.082031 -48.625 18.625 -48.625 L 23.46875 -48.625 C 23.988281 -48.625 24.382812 -48.5 24.65625 -48.25 C 24.9375 -48 25.15625 -47.710938 25.3125 -47.390625 C 25.46875 -47.066406 25.597656 -46.773438 25.703125 -46.515625 C 26.898438 -43.722656 27.984375 -41.195312 28.953125 -38.9375 C 29.929688 -36.675781 30.859375 -34.53125 31.734375 -32.5 C 32.609375 -30.46875 33.492188 -28.414062 34.390625 -26.34375 C 35.285156 -24.269531 36.226562 -22.0625 37.21875 -19.71875 C 38.207031 -17.375 39.3125 -14.734375 40.53125 -11.796875 L 40.5 -11.796875 C 40.519531 -11.742188 40.550781 -11.625 40.59375 -11.4375 C 40.632812 -11.257812 40.65625 -11.117188 40.65625 -11.015625 C 40.65625 -10.179688 40.09375 -9.765625 38.96875 -9.765625 Z M 21.015625 -34.53125 C 20.148438 -32.238281 19.222656 -29.773438 18.234375 -27.140625 C 17.242188 -24.515625 16.242188 -21.820312 15.234375 -19.0625 L 26.953125 -19.0625 C 25.960938 -21.664062 24.972656 -24.242188 23.984375 -26.796875 C 22.992188 -29.347656 22.003906 -31.925781 21.015625 -34.53125 Z M 21.015625 -34.53125 "/></g></g></g><g fill="#532caf" fill-opacity="1"><g transform="translate(181.640618, 304.043066)"><g><path d="M 6.484375 -1.484375 L 6.484375 -56.515625 C 6.484375 -56.929688 6.613281 -57.28125 6.875 -57.5625 C 7.132812 -57.851562 7.507812 -58 8 -58 L 15.8125 -58 C 16.226562 -58 16.585938 -57.875 16.890625 -57.625 C 17.191406 -57.375 17.34375 -57.003906 17.34375 -56.515625 L 17.34375 -10.265625 L 42.25 -10.265625 C 42.644531 -10.265625 42.988281 -10.128906 43.28125 -9.859375 C 43.582031 -9.585938 43.734375 -9.191406 43.734375 -8.671875 L 43.734375 -1.515625 C 43.734375 -1.097656 43.601562 -0.738281 43.34375 -0.4375 C 43.082031 -0.144531 42.71875 0 42.25 0 L 7.96875 0 C 6.976562 0 6.484375 -0.492188 6.484375 -1.484375 Z M 6.484375 -1.484375 "/></g></g></g><g fill="#532caf" fill-opacity="1"><g transform="translate(226.622624, 304.043066)"><g><path d="M 33.515625 -9.765625 L 3.15625 -9.765625 C 2.09375 -9.765625 1.5625 -10.15625 1.5625 -10.9375 C 1.5625 -11.21875 1.578125 -11.441406 1.609375 -11.609375 C 1.648438 -11.785156 1.6875 -11.882812 1.71875 -11.90625 C 3.90625 -17.144531 6.09375 -22.375 8.28125 -27.59375 C 10.46875 -32.8125 12.664062 -38.035156 14.875 -43.265625 C 15.5 -44.773438 16.175781 -46.25 16.90625 -47.6875 C 17.039062 -47.914062 17.222656 -48.128906 17.453125 -48.328125 C 17.691406 -48.523438 18.082031 -48.625 18.625 -48.625 L 23.46875 -48.625 C 23.988281 -48.625 24.382812 -48.5 24.65625 -48.25 C 24.9375 -48 25.15625 -47.710938 25.3125 -47.390625 C 25.46875 -47.066406 25.597656 -46.773438 25.703125 -46.515625 C 26.898438 -43.722656 27.984375 -41.195312 28.953125 -38.9375 C 29.929688 -36.675781 30.859375 -34.53125 31.734375 -32.5 C 32.609375 -30.46875 33.492188 -28.414062 34.390625 -26.34375 C 35.285156 -24.269531 36.226562 -22.0625 37.21875 -19.71875 C 38.207031 -17.375 39.3125 -14.734375 40.53125 -11.796875 L 40.5 -11.796875 C 40.519531 -11.742188 40.550781 -11.625 40.59375 -11.4375 C 40.632812 -11.257812 40.65625 -11.117188 40.65625 -11.015625 C 40.65625 -10.179688 40.09375 -9.765625 38.96875 -9.765625 Z M 21.015625 -34.53125 C 20.148438 -32.238281 19.222656 -29.773438 18.234375 -27.140625 C 17.242188 -24.515625 16.242188 -21.820312 15.234375 -19.0625 L 26.953125 -19.0625 C 25.960938 -21.664062 24.972656 -24.242188 23.984375 -26.796875 C 22.992188 -29.347656 22.003906 -31.925781 21.015625 -34.53125 Z M 21.015625 -34.53125 "/></g></g></g><g fill="#532caf" fill-opacity="1"><g transform="translate(270.784651, 304.043066)"><g><path d="M 40.6875 -9.765625 L 39.5625 -9.765625 C 39.507812 -9.765625 39.472656 -9.753906 39.453125 -9.734375 C 39.441406 -9.722656 39.410156 -9.71875 39.359375 -9.71875 L 9.453125 -9.71875 C 9.191406 -9.71875 8.9375 -9.722656 8.6875 -9.734375 C 8.4375 -9.753906 8.195312 -9.765625 7.96875 -9.765625 L 7.296875 -9.765625 C 6.390625 -9.765625 5.9375 -10.21875 5.9375 -11.125 L 5.9375 -46.625 C 5.9375 -47.039062 6.066406 -47.382812 6.328125 -47.65625 C 6.585938 -47.9375 6.910156 -48.078125 7.296875 -48.078125 L 13.359375 -48.078125 C 13.585938 -48.046875 13.832031 -48 14.09375 -47.9375 C 14.351562 -47.875 14.585938 -47.722656 14.796875 -47.484375 L 32.265625 -28 L 32.265625 -46.90625 C 32.441406 -47.707031 33.015625 -48.109375 33.984375 -48.109375 L 40.6875 -48.109375 C 41.101562 -48.109375 41.515625 -47.953125 41.921875 -47.640625 C 42.328125 -47.328125 42.53125 -46.910156 42.53125 -46.390625 L 42.53125 -11.4375 C 42.53125 -10.320312 41.914062 -9.765625 40.6875 -9.765625 Z M 15.859375 -33.515625 L 15.859375 -19.0625 L 27.765625 -19.0625 Z M 15.859375 -33.515625 "/></g></g></g><g fill="#532caf" fill-opacity="1"><g transform="translate(317.914233, 304.043066)"><g><path d="M 7.65625 -48.15625 L 21.328125 -48.15625 C 23.953125 -48.101562 26.390625 -47.582031 28.640625 -46.59375 C 30.898438 -45.601562 32.867188 -44.234375 34.546875 -42.484375 C 36.222656 -40.742188 37.519531 -38.726562 38.4375 -36.4375 C 39.363281 -34.144531 39.828125 -31.671875 39.828125 -29.015625 C 39.828125 -26.410156 39.375 -23.945312 38.46875 -21.625 C 37.5625 -19.3125 36.28125 -17.265625 34.625 -15.484375 C 32.96875 -13.703125 31.03125 -12.300781 28.8125 -11.28125 C 26.601562 -10.269531 24.1875 -9.765625 21.5625 -9.765625 L 7.375 -9.765625 C 6.519531 -9.816406 6.09375 -10.320312 6.09375 -11.28125 L 6.09375 -46.59375 C 6.09375 -47.632812 6.613281 -48.15625 7.65625 -48.15625 Z M 16.28125 -38.625 L 16.28125 -19.296875 L 20.390625 -19.296875 C 22.234375 -19.296875 23.835938 -19.71875 25.203125 -20.5625 C 26.578125 -21.40625 27.640625 -22.554688 28.390625 -24.015625 C 29.148438 -25.472656 29.53125 -27.140625 29.53125 -29.015625 C 29.53125 -30.835938 29.144531 -32.472656 28.375 -33.921875 C 27.601562 -35.367188 26.515625 -36.515625 25.109375 -37.359375 C 23.703125 -38.203125 22.0625 -38.625 20.1875 -38.625 Z M 16.28125 -38.625 "/></g></g></g></svg>